<svg version="1.1" id="Layer_1" xmlns="http://www.w3.org/2000/svg" xmlns:xlink="http://www.w3.org/1999/xlink" x="0px" y="0px"
	 viewBox="0 0 100 100" style="enable-background:new 0 0 100 100;" xml:space="preserve">
<style type="text/css">
	.st0{fill:none;}
	.st1{fill:#3E5D58;}
</style>
<g>
	<path class="st1" d="M35.83,91.2c0.63,1.95,0.86,3.94,0.72,5.87c-1.9,0.34-3.9,0.32-5.92-0.1c-7.66-1.63-12.78-8.65-12.24-16.25
		C25.89,79.39,33.41,83.75,35.83,91.2L35.83,91.2z M35.83,91.2c0.63,1.95,0.86,3.94,0.72,5.87c-1.9,0.34-3.9,0.32-5.92-0.1
		c-7.66-1.63-12.78-8.65-12.24-16.25C25.89,79.39,33.41,83.75,35.83,91.2L35.83,91.2z M35.83,91.2c0.63,1.95,0.86,3.94,0.72,5.87
		c-1.9,0.34-3.9,0.32-5.92-0.1c-7.66-1.63-12.78-8.65-12.24-16.25C25.89,79.39,33.41,83.75,35.83,91.2L35.83,91.2z M35.83,91.2
		c0.63,1.95,0.86,3.94,0.72,5.87c-1.9,0.34-3.9,0.32-5.92-0.1c-7.66-1.63-12.78-8.65-12.24-16.25
		C25.89,79.39,33.41,83.75,35.83,91.2L35.83,91.2z M35.83,91.2c0.63,1.95,0.86,3.94,0.72,5.87c-1.9,0.34-3.9,0.32-5.92-0.1
		c-7.66-1.63-12.78-8.65-12.24-16.25C25.89,79.39,33.41,83.75,35.83,91.2L35.83,91.2z M35.83,91.2c0.63,1.95,0.86,3.94,0.72,5.87
		c-1.9,0.34-3.9,0.32-5.92-0.1c-7.66-1.63-12.78-8.65-12.24-16.25C25.89,79.39,33.41,83.75,35.83,91.2L35.83,91.2z"/>
	<path class="st1" d="M58.96,76.99c-12.72,0-23.03-10.31-23.03-23.02c0-12.72,10.31-23.03,23.03-23.03
		c12.72,0,23.03,10.31,23.03,23.03C81.98,66.68,71.68,76.99,58.96,76.99 M58.96,18.36c-19.66,0-35.6,15.94-35.6,35.6
		s15.94,35.6,35.6,35.6c19.66,0,35.6-15.94,35.6-35.6S78.62,18.36,58.96,18.36"/>
</g>
</svg>